<svg width="300" height="300" viewBox="0 0 300 300" fill="none" xmlns="http://www.w3.org/2000/svg">
<rect width="300" height="300" fill="#1E1E1E"/>
<g clip-path="url(#clip0_0_1)">
<rect width="300" height="300" fill="white"/>
<rect width="300" height="300" fill="#D9D9D9"/>
<path d="M150 150C191.421 150 92 150 150 150C108.579 150 116 150 75 150C75 108.579 108.579 75 150 75C150 122 150 108.579 150 150Z" fill="#6171FF"/>
<rect x="112" y="150" width="38" height="75" fill="#6171FF"/>
<path d="M150 112L188 150H150V112Z" fill="#6171FF"/>
<path d="M222.057 140V131.273H225.006C225.688 131.273 226.247 131.389 226.685 131.622C227.122 131.852 227.446 132.169 227.656 132.572C227.866 132.976 227.972 133.435 227.972 133.949C227.972 134.463 227.866 134.919 227.656 135.317C227.446 135.714 227.124 136.027 226.689 136.254C226.254 136.479 225.699 136.591 225.023 136.591H222.636V135.636H224.989C225.455 135.636 225.83 135.568 226.114 135.432C226.401 135.295 226.608 135.102 226.736 134.852C226.866 134.599 226.932 134.298 226.932 133.949C226.932 133.599 226.866 133.294 226.736 133.033C226.605 132.771 226.396 132.57 226.109 132.428C225.822 132.283 225.443 132.21 224.972 132.21H223.114V140H222.057ZM226.165 136.08L228.312 140H227.085L224.972 136.08H226.165Z" fill="black"/>
<path d="M166.67 224.168V225.105H162.852V224.168H166.67ZM168.576 229V220.273H171.525C172.207 220.273 172.767 220.389 173.204 220.622C173.642 220.852 173.966 221.169 174.176 221.572C174.386 221.976 174.491 222.435 174.491 222.949C174.491 223.463 174.386 223.919 174.176 224.317C173.966 224.714 173.643 225.027 173.208 225.254C172.774 225.479 172.218 225.591 171.542 225.591H169.156V224.636H171.508C171.974 224.636 172.349 224.568 172.633 224.432C172.92 224.295 173.127 224.102 173.255 223.852C173.386 223.599 173.451 223.298 173.451 222.949C173.451 222.599 173.386 222.294 173.255 222.033C173.125 221.771 172.916 221.57 172.629 221.428C172.342 221.283 171.963 221.21 171.491 221.21H169.633V229H168.576ZM172.684 225.08L174.832 229H173.605L171.491 225.08H172.684Z" fill="black"/>
<path d="M72.6705 135.168V136.105H68.8523V135.168H72.6705ZM74.5763 140V131.273H77.5252C78.207 131.273 78.7667 131.389 79.2042 131.622C79.6417 131.852 79.9656 132.169 80.1758 132.572C80.386 132.976 80.4911 133.435 80.4911 133.949C80.4911 134.463 80.386 134.919 80.1758 135.317C79.9656 135.714 79.6431 136.027 79.2085 136.254C78.7738 136.479 78.2184 136.591 77.5423 136.591H75.1559V135.636H77.5082C77.9741 135.636 78.3491 135.568 78.6332 135.432C78.9201 135.295 79.1275 135.102 79.2553 134.852C79.386 134.599 79.4513 134.298 79.4513 133.949C79.4513 133.599 79.386 133.294 79.2553 133.033C79.1246 132.771 78.9158 132.57 78.6289 132.428C78.342 132.283 77.9627 132.21 77.4911 132.21H75.6332V140H74.5763ZM78.6843 136.08L80.832 140H79.6048L77.4911 136.08H78.6843Z" fill="black"/>
<path d="M179.057 140V131.273H182.006C182.688 131.273 183.247 131.389 183.685 131.622C184.122 131.852 184.446 132.169 184.656 132.572C184.866 132.976 184.972 133.435 184.972 133.949C184.972 134.463 184.866 134.919 184.656 135.317C184.446 135.714 184.124 136.027 183.689 136.254C183.254 136.479 182.699 136.591 182.023 136.591H179.636V135.636H181.989C182.455 135.636 182.83 135.568 183.114 135.432C183.401 135.295 183.608 135.102 183.736 134.852C183.866 134.599 183.932 134.298 183.932 133.949C183.932 133.599 183.866 133.294 183.736 133.033C183.605 132.771 183.396 132.57 183.109 132.428C182.822 132.283 182.443 132.21 181.972 132.21H180.114V140H179.057ZM183.165 136.08L185.312 140H184.085L181.972 136.08H183.165ZM189.681 130.864L186.869 141.312H185.949L188.761 130.864H189.681ZM190.857 140V139.233L193.737 136.08C194.075 135.71 194.354 135.389 194.572 135.116C194.791 134.841 194.953 134.582 195.058 134.341C195.166 134.097 195.22 133.841 195.22 133.574C195.22 133.267 195.146 133.001 194.999 132.777C194.854 132.553 194.655 132.379 194.402 132.257C194.149 132.135 193.865 132.074 193.55 132.074C193.214 132.074 192.922 132.143 192.672 132.283C192.425 132.419 192.233 132.611 192.097 132.858C191.963 133.105 191.896 133.395 191.896 133.727H190.891C190.891 133.216 191.009 132.767 191.244 132.381C191.48 131.994 191.801 131.693 192.207 131.477C192.616 131.261 193.075 131.153 193.584 131.153C194.095 131.153 194.548 131.261 194.943 131.477C195.338 131.693 195.648 131.984 195.872 132.351C196.097 132.717 196.209 133.125 196.209 133.574C196.209 133.895 196.151 134.209 196.034 134.516C195.92 134.82 195.722 135.159 195.438 135.534C195.156 135.906 194.766 136.361 194.266 136.898L192.305 138.994V139.062H196.362V140H190.857Z" fill="black"/>
<path d="M163.057 117V108.273H166.006C166.688 108.273 167.247 108.389 167.685 108.622C168.122 108.852 168.446 109.169 168.656 109.572C168.866 109.976 168.972 110.435 168.972 110.949C168.972 111.463 168.866 111.919 168.656 112.317C168.446 112.714 168.124 113.027 167.689 113.254C167.254 113.479 166.699 113.591 166.023 113.591H163.636V112.636H165.989C166.455 112.636 166.83 112.568 167.114 112.432C167.401 112.295 167.608 112.102 167.736 111.852C167.866 111.599 167.932 111.298 167.932 110.949C167.932 110.599 167.866 110.294 167.736 110.033C167.605 109.771 167.396 109.57 167.109 109.428C166.822 109.283 166.443 109.21 165.972 109.21H164.114V117H163.057ZM167.165 113.08L169.312 117H168.085L165.972 113.08H167.165ZM173.681 107.864L170.869 118.312H169.949L172.761 107.864H173.681ZM174.857 117V116.233L177.737 113.08C178.075 112.71 178.354 112.389 178.572 112.116C178.791 111.841 178.953 111.582 179.058 111.341C179.166 111.097 179.22 110.841 179.22 110.574C179.22 110.267 179.146 110.001 178.999 109.777C178.854 109.553 178.655 109.379 178.402 109.257C178.149 109.135 177.865 109.074 177.55 109.074C177.214 109.074 176.922 109.143 176.672 109.283C176.425 109.419 176.233 109.611 176.097 109.858C175.963 110.105 175.896 110.395 175.896 110.727H174.891C174.891 110.216 175.009 109.767 175.244 109.381C175.48 108.994 175.801 108.693 176.207 108.477C176.616 108.261 177.075 108.153 177.584 108.153C178.095 108.153 178.548 108.261 178.943 108.477C179.338 108.693 179.648 108.984 179.872 109.351C180.097 109.717 180.209 110.125 180.209 110.574C180.209 110.895 180.151 111.209 180.034 111.516C179.92 111.82 179.722 112.159 179.438 112.534C179.156 112.906 178.766 113.361 178.266 113.898L176.305 115.994V116.062H180.362V117H174.857Z" fill="black"/>
<path d="M166.67 187.168V188.105H162.852V187.168H166.67ZM168.576 192V183.273H171.525C172.207 183.273 172.767 183.389 173.204 183.622C173.642 183.852 173.966 184.169 174.176 184.572C174.386 184.976 174.491 185.435 174.491 185.949C174.491 186.463 174.386 186.919 174.176 187.317C173.966 187.714 173.643 188.027 173.208 188.254C172.774 188.479 172.218 188.591 171.542 188.591H169.156V187.636H171.508C171.974 187.636 172.349 187.568 172.633 187.432C172.92 187.295 173.127 187.102 173.255 186.852C173.386 186.599 173.451 186.298 173.451 185.949C173.451 185.599 173.386 185.294 173.255 185.033C173.125 184.771 172.916 184.57 172.629 184.428C172.342 184.283 171.963 184.21 171.491 184.21H169.633V192H168.576ZM172.684 188.08L174.832 192H173.605L171.491 188.08H172.684ZM179.201 182.864L176.388 193.312H175.468L178.281 182.864H179.201ZM180.376 192V191.233L183.257 188.08C183.595 187.71 183.873 187.389 184.092 187.116C184.311 186.841 184.473 186.582 184.578 186.341C184.686 186.097 184.74 185.841 184.74 185.574C184.74 185.267 184.666 185.001 184.518 184.777C184.373 184.553 184.174 184.379 183.922 184.257C183.669 184.135 183.385 184.074 183.069 184.074C182.734 184.074 182.441 184.143 182.191 184.283C181.944 184.419 181.752 184.611 181.616 184.858C181.483 185.105 181.416 185.395 181.416 185.727H180.41C180.41 185.216 180.528 184.767 180.764 184.381C181 183.994 181.321 183.693 181.727 183.477C182.136 183.261 182.595 183.153 183.103 183.153C183.615 183.153 184.068 183.261 184.463 183.477C184.858 183.693 185.167 183.984 185.392 184.351C185.616 184.717 185.728 185.125 185.728 185.574C185.728 185.895 185.67 186.209 185.554 186.516C185.44 186.82 185.241 187.159 184.957 187.534C184.676 187.906 184.285 188.361 183.785 188.898L181.825 190.994V191.062H185.882V192H180.376Z" fill="black"/>
<path d="M101.67 135.168V136.105H97.8523V135.168H101.67ZM103.576 140V131.273H106.525C107.207 131.273 107.767 131.389 108.204 131.622C108.642 131.852 108.966 132.169 109.176 132.572C109.386 132.976 109.491 133.435 109.491 133.949C109.491 134.463 109.386 134.919 109.176 135.317C108.966 135.714 108.643 136.027 108.208 136.254C107.774 136.479 107.218 136.591 106.542 136.591H104.156V135.636H106.508C106.974 135.636 107.349 135.568 107.633 135.432C107.92 135.295 108.127 135.102 108.255 134.852C108.386 134.599 108.451 134.298 108.451 133.949C108.451 133.599 108.386 133.294 108.255 133.033C108.125 132.771 107.916 132.57 107.629 132.428C107.342 132.283 106.963 132.21 106.491 132.21H104.633V140H103.576ZM107.684 136.08L109.832 140H108.605L106.491 136.08H107.684ZM114.201 130.864L111.388 141.312H110.468L113.281 130.864H114.201ZM115.376 140V139.233L118.257 136.08C118.595 135.71 118.873 135.389 119.092 135.116C119.311 134.841 119.473 134.582 119.578 134.341C119.686 134.097 119.74 133.841 119.74 133.574C119.74 133.267 119.666 133.001 119.518 132.777C119.373 132.553 119.174 132.379 118.922 132.257C118.669 132.135 118.385 132.074 118.069 132.074C117.734 132.074 117.441 132.143 117.191 132.283C116.944 132.419 116.752 132.611 116.616 132.858C116.483 133.105 116.416 133.395 116.416 133.727H115.41C115.41 133.216 115.528 132.767 115.764 132.381C116 131.994 116.321 131.693 116.727 131.477C117.136 131.261 117.595 131.153 118.103 131.153C118.615 131.153 119.068 131.261 119.463 131.477C119.858 131.693 120.167 131.984 120.392 132.351C120.616 132.717 120.728 133.125 120.728 133.574C120.728 133.895 120.67 134.209 120.554 134.516C120.44 134.82 120.241 135.159 119.957 135.534C119.676 135.906 119.285 136.361 118.785 136.898L116.825 138.994V139.062H120.882V140H115.376Z" fill="black"/>
<line x1="146" y1="187" x2="154" y2="187" stroke="black"/>
<line x1="113" y1="146" x2="113" y2="154" stroke="black"/>
<line x1="188" y1="146" x2="188" y2="154" stroke="black"/>
<line x1="146" y1="224.5" x2="154" y2="224.5" stroke="black"/>
<path d="M150.707 -0.707107C150.317 -1.09763 149.683 -1.09763 149.293 -0.707107L142.929 5.65685C142.538 6.04738 142.538 6.68054 142.929 7.07107C143.319 7.46159 143.953 7.46159 144.343 7.07107L150 1.41421L155.657 7.07107C156.047 7.46159 156.681 7.46159 157.071 7.07107C157.462 6.68054 157.462 6.04738 157.071 5.65685L150.707 -0.707107ZM151 300L151 -4.37114e-08L149 4.37114e-08L149 300L151 300Z" fill="black"/>
<path d="M300.707 150.707C301.098 150.317 301.098 149.683 300.707 149.293L294.343 142.929C293.953 142.538 293.319 142.538 292.929 142.929C292.538 143.319 292.538 143.953 292.929 144.343L298.586 150L292.929 155.657C292.538 156.047 292.538 156.681 292.929 157.071C293.319 157.462 293.953 157.462 294.343 157.071L300.707 150.707ZM0 151H300V149H0V151Z" fill="black"/>
<line x1="225.5" y1="146" x2="225.5" y2="154" stroke="black"/>
<line x1="75.5" y1="146" x2="75.5" y2="154" stroke="black"/>
<line x1="146" y1="74.5" x2="154" y2="74.5" stroke="black"/>
<line x1="146" y1="112" x2="154" y2="112" stroke="black"/>
<path d="M162.307 3.27273H163.517L165.938 7.34659H166.04L168.46 3.27273H169.67L166.517 8.40341V12H165.46V8.40341L162.307 3.27273Z" fill="black"/>
<path d="M163.057 80V71.2727H166.006C166.688 71.2727 167.247 71.3892 167.685 71.6222C168.122 71.8523 168.446 72.169 168.656 72.5724C168.866 72.9759 168.972 73.4347 168.972 73.9489C168.972 74.4631 168.866 74.919 168.656 75.3168C168.446 75.7145 168.124 76.027 167.689 76.2543C167.254 76.4787 166.699 76.5909 166.023 76.5909H163.636V75.6364H165.989C166.455 75.6364 166.83 75.5682 167.114 75.4318C167.401 75.2955 167.608 75.1023 167.736 74.8523C167.866 74.5994 167.932 74.2983 167.932 73.9489C167.932 73.5994 167.866 73.294 167.736 73.0327C167.605 72.7713 167.396 72.5696 167.109 72.4276C166.822 72.2827 166.443 72.2102 165.972 72.2102H164.114V80H163.057ZM167.165 76.0795L169.312 80H168.085L165.972 76.0795H167.165Z" fill="black"/>
</g>
<defs>
<clipPath id="clip0_0_1">
<rect width="300" height="300" fill="white"/>
</clipPath>
</defs>
</svg>
